{"title":"The Helix Loaded XViD DVDRip - DTRG - SAFCuk009","uid":6389583,"size":1437079814,"categoryP":"video","categoryS":"movies","magnet":"?xt=urn:btih:ed4facf48ee726da12ca782ad31e17148be3f064&amp;dn=The+Helix+Loaded+XViD+DVDRip+-+DTRG+-+SAFCuk009&amp;tr=udp%3A%2F%2Ftracker.openbittorrent.com%3A80&amp;tr=udp%3A%2F%2Fopen.demonii.com%3A1337&amp;tr=udp%3A%2F%2Ftracker.coppersurfer.tk%3A6969&amp;tr=udp%3A%2F%2Fexodus.desync.com%3A6969","seeders":0,"leechers":1,"uploader":"SAFCukO09","files":3,"time":1305311430,"description":"Format : AVI\nFormat/Info : Audio Video Interleave\nFile size : 1.34 GiB\nDuration : 1h 34mn\nOverall bit rate : 2 034 Kbps\nWriting application : Lavf52.47.0\nWriting library : VirtualDub build 32839/release\n\nVideo\nID : 0\nFormat : MPEG-4 Visual\nFormat profile : Advanced Simple@L5\nFormat settings, BVOP : 2\nFormat settings, QPel : No\nFormat settings, GMC : No warppoints\nFormat settings, Matrix : Default (H.263)\nMuxing mode : Packed bitstream\nCodec ID : XVID\nCodec ID/Hint : XviD\nDuration : 1h 34mn\nBit rate : 1 893 Kbps\nWidth : 640 pixels\nHeight : 360 pixels\nDisplay aspect ratio : 16:9\nFrame rate : 25.000 fps\nColor space : YUV\nChroma subsampling : 4:2:0\nBit depth : 8 bits\nScan type : Progressive\nCompression mode : Lossy\nBits/(Pixel*Frame) : 0.329\nStream size : 1.25 GiB (93%)\nWriting library : XviD 63\n\nAudio\nID : 1\nFormat : MPEG Audio\nFormat version : Version 1\nFormat profile : Layer 3\nMode : Joint stereo\nMode extension : MS Stereo\nCodec ID : 55\nCodec ID/Hint : MP3\nDuration : 1h 34mn\nBit rate mode : Constant\nBit rate : 128 Kbps\nChannel(s) : 2 channels\nSampling rate : 44.1 KHz\nCompression mode : Lossy\nStream size : 86.3 MiB (6%)\nAlignment : Aligned on interleaves\nInterleave, duration : 26 ms (0.65 video frame)\nInterleave, preload duration : 522 ms\nWriting library : LAME3.98.2\n\n\n &lt;a href=&quot;\nhttp://www.imdb.com/title/tt0401462/&quot; rel=&quot;nofollow&quot; target=&quot;_NEW&quot;&gt;\nhttp://www.imdb.com/title/tt0401462/&lt;/a&gt;\n\n\n\n\n\n\n\nStoryline\n\nThis sci-fi thriller explores the journey of the &quot;Other Ones&quot; and thrie search for a mysterious new super drug and it's illusuve creator Oprheum. Loaded and guided only by &quot;The Orifice&quot; the &quot;Other Ones&quot; must decide which one of them is destined to discover the secrets of The Helix.\n\n\n\n\n\n\n\n\n\n\n\n\n\n\n\n\nSource no idea ...Nogrp But thanks to whoever\n\nSomeone asked for this so here it is copy wasnt the best so sorted it best i could ...\n\nEnjoy !\n\n\n\nGreetz to Imagine ,Flawl3ss,DiLLoN,BDK,NOiR,TOXiCiNK,THC,Ez,Rx,Boobyblue,TaRiQ786,LKRG\n","torrent":{"xt":"urn:btih:ed4facf48ee726da12ca782ad31e17148be3f064","amp;dn":"The+Helix+Loaded+XViD+DVDRip+-+DTRG+-+SAFCuk009","amp;tr":["udp%3A%2F%2Ftracker.openbittorrent.com%3A80","udp%3A%2F%2Fopen.demonii.com%3A1337","udp%3A%2F%2Ftracker.coppersurfer.tk%3A6969","udp%3A%2F%2Fexodus.desync.com%3A6969"],"infoHash":"ed4facf48ee726da12ca782ad31e17148be3f064","infoHashBuffer":{"type":"Buffer","data":[237,79,172,244,142,231,38,218,18,202,120,42,211,30,23,20,139,227,240,100]},"announce":[],"urlList":[]}}